<svg xmlns="http://www.w3.org/2000/svg" viewBox="0 0 960 1200" role="img" aria-labelledby="title desc">
  <title id="title">Selkie Ceilidh placeholder artwork</title>
  <desc id="desc">A stylised moonlit ocean with dark rocks, storm clouds, and a lone figure shape.</desc>
  <defs>
    <linearGradient id="sky" x1="0" x2="1" y1="0" y2="1">
      <stop offset="0" stop-color="#080712"/>
      <stop offset="0.48" stop-color="#231331"/>
      <stop offset="1" stop-color="#680f32"/>
    </linearGradient>
    <radialGradient id="moon" cx="48%" cy="21%" r="22%">
      <stop offset="0" stop-color="#fff5eb"/>
      <stop offset="0.4" stop-color="#d7c4ce"/>
      <stop offset="1" stop-color="#d7c4ce" stop-opacity="0"/>
    </radialGradient>
    <linearGradient id="sea" x1="0" x2="0" y1="0" y2="1">
      <stop offset="0" stop-color="#141628"/>
      <stop offset="1" stop-color="#070811"/>
    </linearGradient>
    <filter id="blur" x="-20%" y="-20%" width="140%" height="140%">
      <feGaussianBlur stdDeviation="16"/>
    </filter>
  </defs>

  <rect width="960" height="1200" fill="url(#sky)"/>
  <circle cx="460" cy="230" r="210" fill="url(#moon)"/>
  <circle cx="460" cy="230" r="74" fill="#eee1e7" opacity="0.9"/>

  <path d="M0 620 C120 574 224 670 360 625 C520 570 655 650 812 605 C880 586 930 590 960 610 L960 1200 L0 1200 Z" fill="url(#sea)"/>

  <g opacity="0.7" fill="none" stroke="#e8d7df" stroke-width="3">
    <path d="M70 735 C210 705 320 772 455 735 C580 700 705 760 880 730"/>
    <path d="M0 820 C170 782 318 850 500 805 C650 768 796 816 960 790" opacity="0.55"/>
    <path d="M80 920 C230 890 400 948 560 910 C720 872 835 920 940 900" opacity="0.35"/>
  </g>

  <path d="M-60 1040 C90 930 170 850 310 912 C440 970 510 890 650 928 C790 965 825 1080 1040 980 L1040 1200 L-60 1200 Z" fill="#05050a"/>
  <path d="M110 1075 C170 1008 245 988 330 1022 C390 1046 430 1048 490 1028 C545 1010 606 1025 658 1074 Z" fill="#0d0b14"/>

  <g transform="translate(470 655)">
    <ellipse cx="0" cy="365" rx="86" ry="22" fill="#000" opacity="0.45" filter="url(#blur)"/>
    <path d="M-42 320 C-20 214 -16 115 0 70 C18 118 26 224 50 320 C22 340 -15 342 -42 320 Z" fill="#090711"/>
    <path d="M-64 168 C-130 223 -152 286 -194 318 C-129 300 -79 250 -30 198 Z" fill="#0b0913"/>
    <path d="M58 168 C123 223 144 285 188 318 C120 299 73 250 26 198 Z" fill="#0b0913"/>
    <circle cx="0" cy="45" r="33" fill="#0a0811"/>
    <path d="M-38 60 C-78 132 -66 220 -46 305" fill="none" stroke="#d24777" stroke-width="4" opacity="0.65"/>
    <path d="M39 60 C78 132 68 220 49 305" fill="none" stroke="#d24777" stroke-width="4" opacity="0.45"/>
  </g>

  <g opacity="0.32" stroke="#f4e8ef" stroke-width="2">
    <path d="M120 165 L178 206"/>
    <path d="M766 135 L720 185"/>
    <path d="M826 330 L765 330"/>
    <path d="M236 372 L176 337"/>
  </g>

  <rect x="28" y="28" width="904" height="1144" rx="42" fill="none" stroke="#ffffff" stroke-opacity="0.16" stroke-width="2"/>
</svg>
